<svg width="800" height="420" viewBox="0 0 800 420" fill="none" xmlns="http://www.w3.org/2000/svg">
  <defs>
    <linearGradient id="g" x1="0" y1="0" x2="800" y2="420" gradientUnits="userSpaceOnUse">
      <stop stop-color="#183B74"/>
      <stop offset="1" stop-color="#2F6BFF"/>
    </linearGradient>
  </defs>
  <rect width="800" height="420" rx="28" fill="url(#g)"/>
  <circle cx="640" cy="82" r="88" fill="rgba(255,255,255,0.10)"/>
  <circle cx="690" cy="320" r="140" fill="rgba(255,255,255,0.07)"/>
  <rect x="60" y="68" width="220" height="16" rx="8" fill="rgba(255,255,255,0.24)"/>
  <rect x="60" y="98" width="320" height="16" rx="8" fill="rgba(255,255,255,0.16)"/>
  <rect x="60" y="144" width="480" height="190" rx="20" fill="rgba(255,255,255,0.10)" stroke="rgba(255,255,255,0.15)"/>
  <rect x="90" y="180" width="120" height="22" rx="11" fill="#FFFFFF" fill-opacity="0.88"/>
  <rect x="90" y="226" width="300" height="12" rx="6" fill="#FFFFFF" fill-opacity="0.55"/>
  <rect x="90" y="252" width="260" height="12" rx="6" fill="#FFFFFF" fill-opacity="0.45"/>
  <rect x="90" y="278" width="220" height="12" rx="6" fill="#FFFFFF" fill-opacity="0.35"/>
  <path d="M548 142C596 120 632 128 664 160C696 192 700 238 684 284C670 324 633 340 596 336C548 330 510 294 504 242C500 204 514 164 548 142Z" fill="rgba(255,255,255,0.12)"/>
  <path d="M562 182H676" stroke="white" stroke-width="10" stroke-linecap="round" opacity="0.85"/>
  <path d="M618 126V290" stroke="white" stroke-width="10" stroke-linecap="round" opacity="0.85"/>
</svg>
